<mxfile host="app.diagrams.net" agent="Mozilla/5.0 (Macintosh; Intel Mac OS X 10_15_7) AppleWebKit/537.36 (KHTML, like Gecko) Chrome/138.0.0.0 Safari/537.36 Edg/138.0.0.0" version="28.0.7">
  <diagram name="第 1 页" id="7w6zi9jCp_np2msTW12s">
    <mxGraphModel dx="1225" dy="1044" grid="1" gridSize="10" guides="1" tooltips="1" connect="1" arrows="1" fold="1" page="1" pageScale="1" pageWidth="827" pageHeight="1169" math="0" shadow="0">
      <root>
        <mxCell id="0" />
        <mxCell id="1" parent="0" />
        <mxCell id="_sHUTvcMdDTdJ8EnGrEK-1" value="&lt;div&gt;&lt;font&gt;command&lt;/font&gt;&lt;/div&gt;&lt;font&gt;决策命令&lt;/font&gt;" style="rounded=0;whiteSpace=wrap;html=1;fillColor=#26C0E5;" vertex="1" parent="1">
          <mxGeometry x="160" y="80" width="110" height="40" as="geometry" />
        </mxCell>
        <mxCell id="_sHUTvcMdDTdJ8EnGrEK-2" value="&lt;font&gt;Domain Event&lt;/font&gt;&lt;div&gt;&lt;font&gt;领域事件&lt;/font&gt;&lt;/div&gt;" style="rounded=0;whiteSpace=wrap;html=1;fillColor=#FFAA60;" vertex="1" parent="1">
          <mxGeometry x="300" y="80" width="110" height="40" as="geometry" />
        </mxCell>
        <mxCell id="_sHUTvcMdDTdJ8EnGrEK-3" value="Read Model&lt;div&gt;读模型&lt;/div&gt;" style="rounded=0;whiteSpace=wrap;html=1;fillColor=#D7F792;" vertex="1" parent="1">
          <mxGeometry x="720" y="80" width="110" height="40" as="geometry" />
        </mxCell>
        <mxCell id="_sHUTvcMdDTdJ8EnGrEK-4" value="External System&lt;div&gt;外部系统&lt;/div&gt;" style="rounded=0;whiteSpace=wrap;html=1;fillColor=#EA97BC;" vertex="1" parent="1">
          <mxGeometry x="440" y="80" width="110" height="40" as="geometry" />
        </mxCell>
        <mxCell id="_sHUTvcMdDTdJ8EnGrEK-5" value="business Policy&lt;div&gt;业务策略/规则&lt;/div&gt;" style="rounded=0;whiteSpace=wrap;html=1;fillColor=#B68BBF;" vertex="1" parent="1">
          <mxGeometry x="580" y="80" width="110" height="40" as="geometry" />
        </mxCell>
        <mxCell id="_sHUTvcMdDTdJ8EnGrEK-8" value="&lt;font&gt;Entity Val Aggr&lt;/font&gt;&lt;div&gt;&lt;font&gt;领域对象&lt;/font&gt;&lt;/div&gt;" style="rounded=0;whiteSpace=wrap;html=1;fillColor=#FFE270;" vertex="1" parent="1">
          <mxGeometry x="860" y="80" width="110" height="40" as="geometry" />
        </mxCell>
      </root>
    </mxGraphModel>
  </diagram>
</mxfile>
